<svg width="24" height="24" viewBox="0 0 24 24" fill="none" xmlns="http://www.w3.org/2000/svg">
<rect width="24" height="24" rx="4" fill="#5A5C66"/>
<g clip-path="url(#clip0_799_4588)">
<path d="M4 6.13422C4 5.61941 4.18019 5.19469 4.54054 4.86008C4.9009 4.52546 5.36937 4.35815 5.94595 4.35815C6.51223 4.35815 6.97039 4.52288 7.32046 4.85236C7.68082 5.19213 7.861 5.63485 7.861 6.18055C7.861 6.67476 7.68598 7.08659 7.33591 7.41607C6.97555 7.75584 6.50193 7.92572 5.91506 7.92572H5.89961C5.33333 7.92572 4.87517 7.75584 4.5251 7.41607C4.17503 7.0763 4 6.64901 4 6.13422ZM4.20077 19.6477V9.33113H7.62934V19.6477H4.20077ZM9.52896 19.6477H12.9575V13.8871C12.9575 13.5267 12.9987 13.2487 13.0811 13.0531C13.2252 12.7031 13.444 12.407 13.7375 12.1651C14.0309 11.9231 14.399 11.8022 14.8417 11.8022C15.9949 11.8022 16.5714 12.5795 16.5714 14.1342V19.6477H20V13.7327C20 12.2089 19.6396 11.0531 18.9189 10.2655C18.1982 9.47784 17.2458 9.08402 16.0618 9.08402C14.7336 9.08402 13.6988 9.65545 12.9575 10.7983V10.8292H12.9421L12.9575 10.7983V9.33113H9.52896C9.54954 9.66059 9.55985 10.685 9.55985 12.4045C9.55985 14.1239 9.54954 16.5383 9.52896 19.6477Z" fill="white"/>
</g>
<defs>
<clipPath id="clip0_799_4588">
<rect x="4" y="4" width="16" height="16" fill="white"/>
</clipPath>
</defs>
</svg>
