<?xml version="1.0" encoding="utf-8"?>
<!-- Generator: Adobe Illustrator 25.4.1, SVG Export Plug-In . SVG Version: 6.00 Build 0)  -->
<svg version="1.1" id="Layer_1" xmlns="http://www.w3.org/2000/svg" xmlns:xlink="http://www.w3.org/1999/xlink" x="0px" y="0px"
	 viewBox="0 0 399 393" style="enable-background:new 0 0 399 393;" xml:space="preserve">
<style type="text/css">
	.st0{fill:#FFFFFF;}
	.st1{fill:#92E3A9;}
	.st2{fill:#D5E1E2;}
	.st3{opacity:0.5;fill:#D5E1E2;enable-background:new    ;}
	.st4{fill:#30B57E;}
	.st5{fill:none;stroke:#FFFFFF;stroke-width:0.3608;stroke-miterlimit:10;}
	.st6{fill:#32E09D;}
	.st7{fill:none;stroke:#FFFFFF;stroke-width:0.5436;stroke-miterlimit:10;}
	.st8{fill:#0F131F;}
	.st9{fill:#5A5C68;}
	.st10{fill:#2D82DF;}
	.st11{fill:none;stroke:#2D52E1;stroke-miterlimit:10;}
	.st12{fill:#2D52E1;stroke:#2D52E1;stroke-miterlimit:10;}
	.st13{fill:#6961D1;}
	.st14{fill:#2D82DF;stroke:#2D52E1;stroke-miterlimit:10;}
	.st15{display:none;}
	.st16{display:inline;enable-background:new    ;}
	.st17{fill:#D1D3D4;}
	.st18{fill:#F2AD6D;}
	.st19{fill:#231F20;}
	.st20{fill:#E6E7E8;}
	.st21{fill:#BCBEC0;}
	.st22{fill:#D9804C;}
	.st23{fill:#DE925B;}
	.st24{fill:url(#SVGID_1_);}
	.st25{fill:#F5F5F5;}
</style>
<path class="st0" d="M131.7,324c2.3,0,4.7,0,7.2,0c6.1-0.1,11.7-0.5,16.9-1.1V208.7h-24.1L131.7,324L131.7,324z"/>
<path class="st0" d="M176.3,319c8.3-2.2,16.4-5.4,24.1-9.4v-101h-24.1V319z"/>
<path class="st1" d="M220.8,297.2c8-5.2,15.4-9.7,24.1-11.9v-76.6h-24.1V297.2z"/>
<path class="st0" d="M265.4,284.2c8.6,1,16.5,3.3,24.1,5.8v-81.3h-24.1V284.2z"/>
<path class="st0" d="M17.5,245.1c1.4,3.8,2.9,7.6,4.6,11.2v-47.6H9.3C10.5,221.1,13.3,233.3,17.5,245.1z"/>
<path class="st0" d="M42.5,288.8c6.9,7.8,15.1,14.4,24.1,19.6v-99.7H42.5V288.8z"/>
<path class="st0" d="M87.1,317.4c7.9,2.5,15.9,4.2,24.1,5.2V208.7H87.1V317.4z"/>
<path class="st0" d="M310,296.2c7.9,2,16.1,2.4,24.1,1.2v-88.7H310V296.2z"/>
<path class="st0" d="M368.5,74.6c-6.8-13.6-15.1-26.4-24.9-38.1C302.7-12,220,3.1,188.2,28.2s-33.4,59.9-60.7,69S79,88.9,42.6,110.9
	c-24.6,14.9-35,50.3-34,85.7H392c0.2-2.9,0.4-5.7,0.5-8.5C394.2,148.8,386,109.8,368.5,74.6z M44.6,148.3l-4.6-2.4l-4.6,2.4l0.9-5.1
	l-3.7-3.6l5.1-0.8l2.3-4.6l2.3,4.6l5.1,0.8l-3.7,3.6L44.6,148.3z M149.4,158.4l-6.6,8.6l-2.8-10.5l-10.2-3.6l9.1-5.9l0.3-10.8
	l8.4,6.8l10.4-3l-3.9,10.1l6.1,8.9L149.4,158.4z M200.6,91.7l-0.9,6.2l-4.4-4.5l-6.2,1.1l2.9-5.6l-3-5.6l6.2,1l4.4-4.5l1,6.2
	l5.7,2.8L200.6,91.7z M224,187.9l-5-2.6l-5,2.6l1-5.6l-4.1-4l5.6-0.8l2.5-5.1l2.5,5.1l5.6,0.8l-4.1,4L224,187.9z M293.6,23.6
	l-2.6-1.4l-2.6,1.4l0.5-2.9l-2.1-2.1l2.9-0.4l1.3-2.7l1.3,2.7l2.9,0.4l-2.1,2.1L293.6,23.6z M371.6,162.1l-6.6-3.5l-6.6,3.5l1.3-7.4
	l-5.4-5.2l7.4-1.1l3.3-6.7l3.3,6.7l7.4,1.1l-5.4,5.2L371.6,162.1z"/>
<path class="st0" d="M354.6,290.2c1.1-0.6,2.3-1.2,3.5-1.9c9-5.2,15.6-14.6,20.6-26.1v-53.5h-24.1V290.2z"/>
<g id="freepik--Shadow--inject-15">
	<ellipse class="st2" cx="115.7" cy="342.2" rx="41.3" ry="8.3"/>
	<ellipse class="st3" cx="115.7" cy="342.2" rx="41.3" ry="8.3"/>
</g>
<path class="st4" d="M95.6,320.5l21.1-8.8c-1.5-2.4-2.9-1.3-4.8-5.2c-1-2-0.1-5.2-1.4-7.8c-1-2.1-4.1-3.5-5.3-5.9
	c-1.1-2.2-0.3-5.4-1.5-7.8s-4.2-3.5-5.4-5.8s-0.4-5.5-1.6-7.8s-4.3-3.5-5.5-5.7s-0.6-5.5-1.8-7.7s-4.4-3.4-5.7-5.5
	c-1.4-2.3-0.9-5.6-2.1-7.6c-1.6-2.4-4.8-3.3-6.1-5c-2.5-3.2-3.8-6.7-5-6.5s-0.2,3.8,0.5,8c0.3,2.1-1.2,5-0.5,7.8
	c0.6,2.3,3.3,4.1,4.1,6.7c0.7,2.3-0.7,5.4,0.1,7.9s3.6,4.1,4.4,6.5s-0.5,5.5,0.4,7.9s3.7,4.1,4.5,6.4s-0.3,5.5,0.5,7.8
	s3.8,4.1,4.6,6.4c0.9,2.5-0.2,5.6,0.6,7.8c1,2.7,3.9,4.3,4.7,6.3c1.7,4.4-0.7,4.3,0.7,7.8L95.6,320.5z"/>
<line class="st5" x1="73" y1="240.6" x2="104.3" y2="315.8"/>
<polyline class="st5" points="79.5,247.1 77.3,251.5 73,248.9 "/>
<polyline class="st5" points="85,260.2 82.8,264.6 78.4,262 "/>
<polyline class="st5" points="90.1,272.5 87.9,276.9 83.5,274.3 "/>
<polyline class="st5" points="96.2,287.1 94,291.5 89.6,289 "/>
<polyline class="st5" points="102.4,301.9 100.2,306.3 95.8,303.8 "/>
<path class="st6" d="M93.2,314.7l34.3-1.1c-0.8-4.2-3.5-3.4-4-9.9c-0.3-3.3,2.6-7.4,2.2-11.7c-0.3-3.5-3.9-7.1-4.3-11.1
	c-0.4-3.6,2.5-7.8,2.1-11.8c-0.4-3.7-4.1-7.2-4.5-11s2.4-8,1.9-11.8s-4.2-7.2-4.7-11s2.2-8.1,1.6-11.8c-0.6-3.9-4.4-7.2-5-10.8
	c-0.7-4,1.8-8.4,1.1-11.9c-0.9-4.2-5-7.2-5.9-10.3c-1.7-5.8-1.7-11.5-3.6-11.8s-2.2,5.2-3.5,11.5c-0.6,3.1-4.4,6.4-4.9,10.7
	c-0.4,3.5,2.5,7.6,2.1,11.6c-0.3,3.6-3.8,7.2-4,11.1c-0.2,3.7,2.9,7.7,2.7,11.5s-3.6,7.4-3.7,11.2s3,7.7,2.9,11.5s-3.4,7.6-3.5,11.3
	c-0.1,3.9,3.2,7.8,3.1,11.4c0,4-3.3,7.8-3.3,11.4c0,4.3,3.2,8.1,3.2,11.4c0,7.1-3.3,5.7-3.2,11.4L93.2,314.7z"/>
<line class="st7" x1="104" y1="190" x2="107.9" y2="312.6"/>
<polyline class="st7" points="109.8,202.7 104.4,207.7 99.6,201.8 "/>
<polyline class="st7" points="110.5,224 105.1,229 100.3,223.1 "/>
<polyline class="st7" points="111.1,244.1 105.7,249.1 100.9,243.2 "/>
<polyline class="st7" points="111.9,268 106.4,273 101.7,267.1 "/>
<polyline class="st7" points="112.7,292.1 107.2,297.1 102.4,291.2 "/>
<path class="st6" d="M113.9,237.6c1.8,1.2,6.5,2,6.5,2s-0.4-3.3-0.5-3.5c-0.6-2.4-3.2-6.6-5.9-6.7c-1.8-0.1-3.3,1.4-3.3,3.1
	c0,0.1,0,0.2,0,0.4C110.8,234.8,112.4,236.5,113.9,237.6z"/>
<path class="st6" d="M161.5,247.9c0,0,1.5-3,1.5-3.2c0.8-2.3,1-7.2-1.2-8.9c-1.5-1-3.5-0.7-4.5,0.8c-0.1,0.1-0.1,0.2-0.2,0.3
	c-1,1.7-0.6,4,0.1,5.7C158,244.6,161.5,247.9,161.5,247.9z"/>
<path class="st4" d="M178.9,233.5c-2.6-0.8-6.5,2.2-7.9,4.2c-0.1,0.2-1.7,3.1-1.7,3.1h0.1c-0.6,0.5-1.3,1-2,1.6
	c-1.3,1.1-2.8,2.3-4.2,3.8c-1.6,1.5-3.2,3.2-4.6,4.9c-1.6,1.9-3.1,4-4.3,6.2v0.1c0.2-0.8,0.6-3,0.6-3.2c0.1-2.4-1-7.2-3.5-8.2
	c-1.7-0.6-3.5,0.3-4.2,1.9c0,0.1-0.1,0.2-0.1,0.4c-0.5,1.9,0.5,4,1.6,5.5c1.2,1.6,5.2,3.8,5.5,3.9c-1.2,2.3-2.3,4.6-3.2,7
	c-0.5,1.4-1,2.8-1.5,4.2c0.1-0.7,0.2-1.3,0.2-1.4c0.1-2.4-1-7.2-3.5-8.2c-1.7-0.6-3.5,0.3-4.1,1.9c0,0.1-0.1,0.2-0.1,0.3
	c-0.5,1.9,0.5,4,1.6,5.5s4.4,3.4,5.3,3.8l-0.5,1.6c-0.9,2.6-1.7,5.3-2.6,7.8c-0.3,0.9-0.7,1.8-1,2.6c0.1-0.6,0.2-1.1,0.2-1.2
	c0.1-2.5-1-7.2-3.5-8.2c-1.7-0.6-3.5,0.2-4.1,1.9c0,0.1-0.1,0.2-0.1,0.4c-0.5,1.9,0.5,4,1.6,5.5s4.1,3.2,5.2,3.8
	c-0.4,0.9-0.8,1.8-1.1,2.6c-0.3,0.6-0.5,1.1-0.9,1.7s-0.6,1.1-0.9,1.6c-0.6,1-1.3,2.1-1.9,3.1c-0.4,0.7-0.9,1.3-1.3,2
	c0.3-0.9,0.9-2.7,1-2.8c0.4-2.1,0.2-4.3-0.5-6.3c0.1-0.2,0.1-0.5,0.1-0.7c0.1-1.8-1.2-3.3-3-3.4c-0.1,0-0.2,0-0.3,0
	c-2.7,0.2-5.3,4.4-5.9,6.8c0,0.1-0.2,1.7-0.4,2.7c0-0.6,0-1.2-0.1-1.8c0-1.2-0.1-2.4-0.2-3.7c-0.1-0.6-0.1-1.2-0.2-1.9
	s-0.2-1.3-0.3-1.9c-0.2-1.5-0.6-3-0.9-4.5c1.1,0,4.8-0.3,6.4-1.1s3.5-2.3,3.9-4.2c0.4-1.7-0.7-3.5-2.5-3.9c-0.1,0-0.2,0-0.3-0.1
	c-2.7-0.2-5.9,3.6-6.8,5.8c-0.1,0.1-0.6,1.8-0.8,2.8c-0.2-0.9-0.4-1.8-0.7-2.7c-0.7-2.6-1.6-5.3-2.4-7.9l-0.7-2.4
	c0.4,0,4.8-0.2,6.7-1.1c1.6-0.8,3.5-2.3,3.8-4.2c0.4-1.7-0.7-3.5-2.4-3.9c-0.1,0-0.2,0-0.4-0.1c-2.7-0.2-5.9,3.6-6.8,5.8
	c-0.1,0.2-0.8,2.6-0.9,3.2c-0.5-1.8-1-3.6-1.5-5.4c-0.6-2.4-1-4.8-1.3-7.3c0.2,0,4.8-0.1,6.7-1.1c1.6-0.8,3.5-2.3,3.8-4.2
	c0.4-1.7-0.7-3.5-2.4-3.9c-0.1,0-0.2,0-0.4-0.1c-2.7-0.2-5.9,3.6-6.8,5.8c-0.1,0.1-0.6,2-0.8,2.9h-0.1c-0.2-2.5-0.2-5,0-7.5
	c0.1-1.4,0.3-2.7,0.5-3.9c0.9,0.1,4.8,0.3,6.6-0.4s3.7-1.9,4.3-3.8c0.6-1.7-0.3-3.5-2-4.1c-0.1,0-0.2-0.1-0.3-0.1
	c-2.7-0.5-6.2,2.9-7.4,5c-0.1,0.1-0.6,1.4-1,2.3c0.1-0.6,0.2-1.1,0.3-1.7c0.4-2,0.9-3.9,1.3-5.5c0.3-0.9,0.5-1.8,0.8-2.5
	c0.9-0.4,4.4-2,5.7-3.4s2.4-3.4,2.1-5.3c-0.3-1.8-1.9-3-3.7-2.7c-0.1,0-0.2,0-0.3,0.1c-2.6,0.8-4.2,5.5-4.2,7.9
	c0,0.2,0.3,3.5,0.3,3.5l0,0c-0.2,0.7-0.5,1.5-0.8,2.4c-0.5,1.6-1,3.4-1.5,5.5c-0.5,2.2-0.9,4.4-1.1,6.6c-0.3,2.5-0.4,5-0.2,7.5v0.1
	c-0.3-0.7-1.2-2.8-1.3-3c-1.2-2.1-4.8-5.5-7.5-4.9c-1.7,0.4-2.8,2.2-2.4,3.9c0,0.1,0.1,0.2,0.1,0.3c0.6,1.8,2.6,3.1,4.3,3.7
	c1.9,0.7,6.4,0.3,6.8,0.2c0.2,2.5,0.6,5.1,1.2,7.6c0.3,1.5,0.7,2.9,1.1,4.4c-0.3-0.6-0.5-1.2-0.6-1.3c-1.2-2.1-4.8-5.5-7.5-4.9
	c-1.7,0.4-2.8,2.2-2.4,3.9c0,0.1,0.1,0.2,0.1,0.3c0.6,1.8,2.6,3.1,4.4,3.7s5.6,0.3,6.6,0.3c0.2,0.5,0.3,1.1,0.5,1.7
	c0.8,2.7,1.5,5.3,2.2,8c0.2,0.9,0.4,1.9,0.6,2.8c-0.2-0.6-0.4-1-0.5-1.1c-1.2-2.1-4.8-5.5-7.5-4.9c-1.7,0.4-2.8,2.2-2.4,3.9
	c0,0.1,0.1,0.2,0.1,0.3c0.6,1.8,2.6,3.1,4.4,3.7s5.2,0.4,6.4,0.3c0.2,1,0.4,1.9,0.5,2.8c0.1,0.6,0.2,1.2,0.2,1.9s0.1,1.3,0.1,1.9
	c0.1,1.2,0.1,2.4,0.1,3.6c0,0.8,0,1.6,0,2.4c-0.2-0.9-0.7-2.7-0.8-2.9c-0.9-2.3-3.9-6.2-6.7-6c-1.8,0.2-3.1,1.7-3,3.5
	c0,0.1,0,0.2,0,0.3c0.3,1.9,2.1,3.5,3.7,4.3c1.8,0.9,6.1,1.2,6.6,1.3c0,1.3,0,2.6,0,3.8c-0.1,3.7-0.2,6.9-0.4,9.2l1.8,0.4
	c0.1-2.4,0.2-5.7,0.2-9.6c0-1.3,0-2.7-0.1-4.2c1.4-0.3,2.7-0.6,4-1c1.1,1.8,4.3,4.2,4.7,4.5c-0.7,1.1-1.4,2.1-2.1,3.1
	c-2.1,3-4,5.6-5.4,7.4l2,0.4c1.3-1.8,3-4.1,4.8-6.9c0.7-1.1,1.5-2.3,2.2-3.5c0.5,0.2,4.5,1.9,6.5,1.8c1.8-0.1,4.1-0.6,5.3-2.2
	c1.1-1.4,0.8-3.5-0.6-4.5c-0.1-0.1-0.2-0.1-0.3-0.2c-2.4-1.4-6.8,0.8-8.6,2.4c-0.1,0.1-1.1,1.3-1.8,2c0.3-0.5,0.6-1,0.9-1.5
	c0.6-1,1.2-2.1,1.9-3.2l0.9-1.7c0.3-0.5,0.6-1.2,0.8-1.8c0.6-1.4,1.2-2.8,1.7-4.3c0.9,0.5,4.1,2.4,6,2.6s4.2,0,5.5-1.4
	c1.3-1.2,1.3-3.3,0.1-4.6c-0.1-0.1-0.2-0.2-0.3-0.2c-2.1-1.7-6.9-0.3-8.9,1.1c-0.1,0.1-1.5,1.2-2.2,1.9c0.3-0.9,0.6-1.8,0.9-2.7
	c0.8-2.6,1.6-5.3,2.4-7.9c0.2-0.8,0.5-1.6,0.7-2.4c0.3,0.2,4.1,2.5,6.1,2.8c1.8,0.2,4.2,0,5.5-1.4c1.3-1.2,1.3-3.3,0.1-4.6
	c-0.1-0.1-0.2-0.2-0.3-0.2c-2.1-1.7-6.9-0.3-8.9,1.1c-0.1,0.1-2.1,1.8-2.6,2.2c0.5-1.8,1.1-3.5,1.7-5.3c0.8-2.3,1.8-4.6,2.9-6.8
	c0.1,0.1,4.1,2.5,6.2,2.8c1.8,0.2,4.2,0,5.5-1.4c1.3-1.2,1.3-3.3,0.1-4.6c-0.1-0.1-0.2-0.2-0.3-0.2c-2.1-1.7-6.9-0.2-8.9,1.1
	c-0.1,0.1-1.6,1.3-2.3,2l-0.1-0.1c1.2-2.2,2.6-4.3,4.1-6.2c0.8-1.1,1.7-2.1,2.6-3c0.7,0.5,3.9,2.9,5.7,3.4s4.2,0.5,5.6-0.8
	c1.4-1.1,1.7-3.1,0.6-4.5c-0.1-0.1-0.1-0.2-0.2-0.3c-1.9-1.9-6.8-1-9,0.1c-0.1,0.1-1.2,0.8-2.1,1.4c0.4-0.4,0.8-0.9,1.2-1.2
	c1.5-1.5,2.9-2.7,4.1-3.8c0.7-0.6,1.4-1.2,2-1.7c0.9,0.2,4.8,0.8,6.6,0.3s3.9-1.5,4.7-3.3c0.8-1.6,0.1-3.6-1.5-4.4
	C179.1,233.6,179,233.5,178.9,233.5z"/>
<rect x="79.7" y="306" class="st8" width="74.4" height="9.9"/>
<polygon class="st9" points="142.4,344.2 91.4,344.2 85,314.8 148.8,314.8 "/>
<path class="st10" d="M80.3,157l-0.8,70.9c0,0-3,1.5-11.3,1.5s-11.3-1.5-11.3-1.5l3-28.7c0,0-10.6-2.3-10.6-5.3s23.4-86,23.4-86
	S84.9,129.1,80.3,157z"/>
<line class="st11" x1="59.9" y1="199.2" x2="69.7" y2="154.1"/>
<path class="st12" d="M63.7,107.9c0,0,13.6,18.1,15.1,25.7s1.5,23.4,1.5,23.4c4.4-11.1,7.2-22.8,8.3-34.7
	C90.1,103.4,75,93.6,75,93.6L63.7,107.9z"/>
<path class="st10" d="M318.9,157l0.8,70.9c0,0,3,1.5,11.3,1.5s11.3-1.5,11.3-1.5l-3-28.7c0,0,10.5-2.3,10.5-5.3s-23.4-86-23.4-86
	S314.4,129.1,318.9,157z"/>
<line class="st11" x1="339.3" y1="199.2" x2="330.2" y2="146.7"/>
<path class="st12" d="M335.5,107.9c0,0-13.6,18.1-15.1,25.7s-1.5,23.4-1.5,23.4c-4.4-11.1-7.2-22.8-8.3-34.7
	c-1.5-18.9,13.6-28.7,13.6-28.7L335.5,107.9z"/>
<path class="st13" d="M335.4,107.9c-83.8-49.5-187.9-49.5-271.7,0L39.9,67.6c-1.7-2.9-0.1-7,3.7-9.1c96.9-54.2,215.1-54.2,312,0
	c3.7,2.1,5.4,6.2,3.6,9.1L335.4,107.9z"/>
<path class="st14" d="M335.4,107.9c-83.8-49.5-187.9-49.5-271.7,0L39.9,67.6c-1.7-2.9-0.1-7,3.7-9.1c96.9-54.2,215.1-54.2,312,0
	c3.7,2.1,5.4,6.2,3.6,9.1L335.4,107.9z"/>
<g class="st15">
	<g class="st16">
		<path class="st0" d="M94.2,79.4L77.5,51.8l6.2-2l11.1,19.1l-1.1-22.3l7.2-2.3l11.9,19.2l-2.1-22.3l6.1-1.9l2.3,32.2l-6.4,2
			L99.5,53l1.2,24.2L94.2,79.4z"/>
	</g>
	<g class="st16">
		<path class="st0" d="M134.2,67.3l-6.6-30.7l22.8-4.9l1.1,5.2l-16.6,3.6l1.5,6.8l15.4-3.3l1.1,5.2l-15.4,3.3l1.8,8.4l17.2-3.7
			l1.1,5.2L134.2,67.3z"/>
	</g>
	<g class="st16">
		<path class="st0" d="M159.9,62.1l-4-30.8l6.3-0.8l3.4,25.6l15.6-2l0.7,5.2L159.9,62.1z"/>
	</g>
	<g class="st16">
		<path class="st0" d="M203.9,46.7l6.2,1.7c-0.8,3.5-2.3,6.1-4.4,7.8c-2.1,1.7-4.9,2.7-8.2,2.8c-4.2,0.1-7.6-1.2-10.4-3.9
			c-2.8-2.7-4.3-6.6-4.4-11.5c-0.2-5.2,1-9.3,3.6-12.3s6.1-4.6,10.5-4.7c3.8-0.1,7,0.9,9.5,3.1c1.5,1.3,2.6,3.2,3.4,5.7l-6.2,1.7
			c-0.4-1.6-1.2-2.9-2.5-3.8c-1.2-0.9-2.7-1.3-4.3-1.3c-2.3,0.1-4.2,1-5.6,2.7c-1.4,1.7-2,4.4-1.9,8.2c0.1,4,1,6.8,2.4,8.4
			c1.5,1.6,3.4,2.4,5.7,2.3c1.7-0.1,3.1-0.6,4.3-1.8C202.7,50.7,203.5,49,203.9,46.7z"/>
	</g>
	<g class="st16">
		<path class="st0" d="M213.5,42.5c0.3-3.2,1-5.8,2.2-7.9c0.9-1.5,2-2.9,3.3-4c1.3-1.2,2.8-2,4.3-2.5c2-0.7,4.3-0.9,6.9-0.6
			c4.6,0.4,8.2,2.2,10.7,5.3c2.5,3.1,3.5,7.2,3.1,12.3c-0.5,5.1-2.2,8.9-5.2,11.5s-6.8,3.7-11.4,3.3c-4.7-0.4-8.2-2.2-10.7-5.3
			C214,51.5,213,47.5,213.5,42.5z M220,42.8c-0.3,3.6,0.3,6.3,1.7,8.3s3.5,3.1,6,3.3s4.7-0.5,6.5-2.2s2.8-4.3,3.2-8
			c0.3-3.6-0.2-6.3-1.6-8.3s-3.4-3-6-3.2s-4.8,0.5-6.6,2.1C221.4,36.6,220.3,39.2,220,42.8z"/>
	</g>
	<g class="st16">
		<path class="st0" d="M247,61.4l7.4-30.5l9.2,2.2l0.5,22.1l10.5-19.5l9.2,2.2l-7.4,30.5l-5.7-1.4l5.8-24l-11.9,22.5l-5.9-1.4
			l-0.2-25.5l-5.8,24L247,61.4z"/>
	</g>
	<g class="st16">
		<path class="st0" d="M287.7,72.1L299,42.8l21.7,8.4l-1.9,4.9L303,50l-2.5,6.5l14.7,5.7l-1.9,4.9l-14.7-5.7l-3.1,8l16.3,6.3
			l-1.9,4.9L287.7,72.1z"/>
	</g>
</g>
<g>
	<ellipse class="st17" cx="236.6" cy="383" rx="49.9" ry="3.8"/>
	<g>
		<polygon class="st18" points="220.4,372.8 198,381.4 198,383.1 232.4,383 232.4,359.2 220.5,359.3 		"/>
		<polygon class="st19" points="198,381.4 198,383.1 232.4,383 232.4,381.3 232.3,372.8 232.3,372.1 227.3,381.2 219.5,381.2 
			215.4,374.3 209.8,376.7 211.7,380.8 		"/>
	</g>
	<g>
		<polygon class="st18" points="266.5,362.2 268.6,383 245.3,383 245.3,380.5 254.8,371.5 254.8,362 		"/>
		<path class="st19" d="M245.3,383v-2.6h17.4c0,0-0.6-2.3-4.7-3c-2.6-0.4-8.4-0.9-12,2.2l4.4-3.9c2.5-2.7,12.6-3.7,16.1,4.5l1-8.2
			l1.1,10.9h-23.3V383z"/>
	</g>
	<path class="st20" d="M264.4,243l0.6-68.1l4.9-10.6c0-4.6-3.3-8.6-7.9-9.4l-39.4-0.9c-5,0.6-8.8,4.8-8.8,9.8l-0.7,78.6l-1.7,126
		H271L264.4,243z"/>
	<path class="st21" d="M259.4,128.5c13,29.7,11.8,52.1,7.1,55.9c-7.2,8.5-48.3,9.8-56.5,3.8c-3.1-2.2-3.3-25.9,5.8-57.1
		C221.9,110.2,250.9,112.5,259.4,128.5z"/>
	<path class="st20" d="M263,176.1l-7.8-0.9c-2.3-0.3-4.7-0.4-7-0.5l-13.7-0.2c-3.6-0.1-7.3,0.2-10.9,0.7l0,0c-5,0.6-8.8,4.8-8.8,9.8
		l-0.7,78.6l51.3,0.5L266,196C266,196.1,267.6,176.9,263,176.1z"/>
	<polygon class="st20" points="256,175.4 289.8,167.3 320.9,146.3 323.9,154.6 296,183.9 261.9,185.3 	"/>
	<polygon class="st20" points="223.9,175.4 190.1,167.3 158.9,146.3 156,153.9 183.9,183.9 218,185.3 	"/>
	<polygon class="st18" points="158.8,147 154.5,144.6 150.4,137 142.9,134.1 140,130.8 138.6,132.3 139,136 143.5,139.8 121,139.6 
		121,142 131.4,143.4 121.8,144.9 126.9,148.5 139,150.8 149.9,150.8 156.6,152.9 	"/>
	<polygon class="st22" points="124.8,147.1 130.2,146.9 133.8,146.8 139.7,149.4 150.3,150.9 139,150.8 126.9,148.5 	"/>
	<polygon class="st22" points="136.6,145.3 141.8,146.7 146.3,145.6 	"/>
	<polygon class="st18" points="321.1,147 325.4,144.6 329.5,137 336.9,134.1 339.9,130.8 341.3,132.3 341.2,136 336.3,139.8 
		358.9,139.6 358.8,142 348.5,143.4 358.1,144.9 353,148.5 340.9,150.8 330,150.8 323.3,152.9 	"/>
	<polygon class="st22" points="355.1,147.1 349.7,146.9 346.1,146.8 340.2,149.4 329.6,150.9 340.9,150.8 353,148.5 	"/>
	<polygon class="st22" points="343.2,145.3 338.1,146.7 333.6,145.6 	"/>
	
		<rect x="231.1" y="155.6" transform="matrix(0.9981 -6.180660e-02 6.180660e-02 0.9981 -9.7582 15.1406)" class="st23" width="17.5" height="19.4"/>
	<path class="st18" d="M240.6,167.3l-1.4,0.1c-1.9,0.1-3.8-0.5-5.3-1.6l-3.6-2.7c-4.6-3.5-7.6-8.6-8.4-14.3l-4-27.2l17.5-13.1
		c0,0,20.8,10.3,20.8,11.1c0,0.5,0.2,15.4,0.3,26c0.1,6.7-2.9,13.1-8.1,17.3l-3.2,2.7C243.8,166.6,242.2,167.2,240.6,167.3z"/>
	<path class="st19" d="M248.2,140.5L248.2,140.5c0.8,0,1.4-0.7,1.4-1.5l-0.1-2.3c0-0.8-0.7-1.4-1.5-1.4l0,0c-0.8,0-1.4,0.7-1.4,1.5
		l0.1,2.3C246.7,140,247.4,140.6,248.2,140.5z"/>
	<path class="st19" d="M230.3,141.6L230.3,141.6c0.8,0,1.4-0.7,1.4-1.5l-0.1-2.3c0-0.8-0.7-1.4-1.5-1.4l0,0c-0.8,0-1.4,0.7-1.4,1.5
		l0.1,2.3C228.8,141.1,229.5,141.7,230.3,141.6z"/>
	<path class="st0" d="M246.3,150.6l-14.9-0.2l2.6,2.9c1.1,1.2,2.6,1.9,4.3,2h1.2c1.9,0.1,3.7-0.8,4.9-2.3L246.3,150.6z"/>
	
		<linearGradient id="SVGID_1_" gradientUnits="userSpaceOnUse" x1="-956.6767" y1="-1008.3711" x2="-956.6767" y2="-1031.7538" gradientTransform="matrix(-0.9981 6.180000e-02 -6.180000e-02 -0.9981 -780.1332 -825.2795)">
		<stop  offset="0" style="stop-color:#D9804C"/>
		<stop  offset="0.5686" style="stop-color:#E99C61"/>
		<stop  offset="1" style="stop-color:#F2AD6D"/>
	</linearGradient>
	<path class="st24" d="M247.5,114.7c4.5,2.3,8.6,4.5,8.6,4.9s0.1,8,0.2,16.1c-0.2,0-0.3,0-0.5,0c-5.5-2.7-25.3-4.4-34.7,2.6
		c-0.2,0.2-0.5,0.3-0.7,0.5l-2.6-17.3l3.7-2.8C229.5,116,239.4,113.9,247.5,114.7z"/>
	<path class="st19" d="M217.8,121.5l4,27.2c0.8,5.7,3.9,10.8,8.4,14.3l3.6,2.7c1.5,1.2,3.4,1.8,5.3,1.6l1.4-0.1
		c1.7-0.1,3.3-0.7,4.6-1.8l3.2-2.7c5.2-4.3,8.1-10.6,8.1-17.3c-0.1-10.6-0.3-25.4-0.3-26c0-0.1-0.7-0.6-1.7-1.2
		c0.2,4.3,0.8,20.8,1,24.8c0.2,3.2-0.6,10.2-5.7,14.5c0.4-3.9,0.4-9.4-0.2-9.8c-0.7-0.5-20.7-0.5-21.2,0.3c-0.4,0.7-0.1,5.6,0.4,10
		c-3.7-3.2-5.1-8-5.7-11.3c-0.9-4.5-3-21.5-3.6-26.6L217.8,121.5z M234.6,161c-2.2-0.5-3.8-2.3-4.1-4.6c-0.4-3.4-0.6-6.3-0.5-7
		c0.1-1.1,16.8-1,18-0.3c0.7,0.4,0.6,3.7-0.1,7.4c-0.4,2-1.8,3.6-3.8,4.1c-1.3,0.4-2.8,0.6-4.5,0.7C237.7,161.4,236,161.3,234.6,161
		z"/>
	<polygon class="st19" points="240.4,162.8 240.5,158 237.1,157.8 237,163 	"/>
	<path class="st19" d="M252.7,133.4c-1.5-1.2-5.7-2.5-10-2.3c-0.1-0.5-0.1-1.9-0.1-1.9c2.2-0.5,7.5-1.2,10.6,2.5
		C253.1,132.4,252.7,133.4,252.7,133.4z"/>
	<path class="st19" d="M223.6,134.9c1.4-1.4,5.4-3.2,9.6-3.5c0-0.5-0.1-1.9-0.1-1.9c-2.3-0.3-7.6-0.2-10.2,3.8
		C223.1,134,223.6,134.9,223.6,134.9z"/>
	<path class="st20" d="M217.6,122.9l38.9-2.4c-0.5-8.8-6.9-16-20.4-15.1C223.5,106.2,217.1,114.1,217.6,122.9z"/>
	<path class="st19" d="M217.1,122.1c-1.2,0-2.1-0.9-2.2-2.1c-0.1-1.2,0.9-2.3,2.1-2.3l39.5-2.4c1.2-0.1,2.3,0.9,2.3,2.1
		c0.1,1.2-0.9,2.3-2.1,2.3L217.1,122.1C217.2,122.1,217.1,122.1,217.1,122.1z"/>
	<path class="st19" d="M217.8,118.7c-1.2,0-2.1-0.9-2.2-2.1c-0.1-1.2,0.9-2.3,2.1-2.3l37.7-2.3c1.2-0.1,2.3,0.9,2.3,2.1
		c0.1,1.2-0.9,2.3-2.1,2.3L217.8,118.7C217.9,118.7,217.9,118.7,217.8,118.7z"/>
	<path class="st20" d="M217.7,122.9l19.3-1.7l19.5-0.7c0,0,1.9,4.7,2.9,8c-7.6-6.8-12.6-2.7-22.1-2.1c-9.5,0.6-14.3-3-21.5,4.8
		C216.4,127.8,217.7,122.9,217.7,122.9z"/>
	<path class="st25" d="M233.3,176.4l14.4-0.9c1-0.1,1.7-0.9,1.6-1.8l-0.3-5.6l-10.3,1.9l-7.5-0.8l0.3,5.6
		C231.5,175.7,232.3,176.4,233.3,176.4z"/>
	<path class="st20" d="M256.2,126.1c2.5,1.8,3.2,4.8,2.4,11.1c-0.8,6.4-1.6,11.6,3.2,16c4.7,4.4,7.9,10.6,7.8,21.1
		c2.3-17.3-8.8-43.6-13.1-53.9C254.9,122.5,256.2,126.1,256.2,126.1z"/>
	<path class="st20" d="M219.8,127.7c-2.6,2.2-4.5,7.5-3.4,13.8c1,6.3,3.5,11.8,0,16.1c-3.6,4.4-6.8,7.6-8.4,19.3
		c0.4-15.4,2.8-33.6,9.6-54.1C218.7,121.1,219.8,127.7,219.8,127.7z"/>
	<path class="st25" d="M239.9,176c-2.8,4-5.9,16.1-5.6,26.3c-1,0.1-5.5,0.3-5.5,0.3c-0.2-7.6,1.5-20.8,4.7-26.3
		C235.4,173.1,239.9,176,239.9,176z"/>
	<g>
		<path class="st17" d="M234.5,178.2c0-0.4,0.4-0.7,0.8-0.7s0.7,0.4,0.7,0.8c0,0.4-0.4,0.7-0.8,0.7
			C234.8,179,234.5,178.6,234.5,178.2z"/>
		<path class="st17" d="M236.2,172.2c0-0.4,0.4-0.7,0.8-0.7s0.7,0.4,0.7,0.8c0,0.4-0.4,0.7-0.8,0.7
			C236.4,173,236.1,172.6,236.2,172.2z"/>
		<path class="st17" d="M232.7,184.2c0-0.4,0.4-0.7,0.8-0.7s0.7,0.4,0.7,0.8s-0.4,0.7-0.8,0.7C233,184.9,232.7,184.6,232.7,184.2z"
			/>
		<path class="st17" d="M231.4,191.2c0-0.4,0.4-0.7,0.8-0.7s0.7,0.4,0.7,0.8s-0.4,0.7-0.8,0.7S231.4,191.6,231.4,191.2z"/>
		<path class="st17" d="M230.7,198.1c0-0.4,0.4-0.7,0.8-0.7s0.7,0.4,0.7,0.8s-0.4,0.7-0.8,0.7C231,198.9,230.7,198.5,230.7,198.1z"
			/>
	</g>
</g>
<g>
	<path class="st0" d="M124.6,67.6l-7,1.9l-12-21.9l6.2-1.7l4.5,8.7l3,6.2l-0.5-6.9l-0.4-9.8l6.4-1.7l4.7,8.6l3.1,6.2l-0.6-6.8
		l-0.4-9.8l5.9-1.6l0.6,25l-7,1.9l-6.9-12.7l0,0L124.6,67.6z"/>
	<path class="st0" d="M149.8,42.3l0.6,3.9l9-1.5l0.8,5.1l-9,1.5L152,56l10.8-1.8l0.8,5.1l-16.9,2.8l-3.9-23.8l16.8-2.8l0.8,5.1
		L149.8,42.3z"/>
	<path class="st0" d="M173.6,53l10.2-0.9l0.5,5.1l-16.5,1.5l-2.2-24l6.2-0.6L173.6,53z"/>
	<path class="st0" d="M199.2,57.2c-8.3,0.1-11.5-5.2-11.6-12.3c-0.1-7.1,3-12.4,11.3-12.5c3,0,5.6,0.6,8.4,1.9l0.1,4.7
		c-3.5-1-5.8-1.5-7.7-1.5c-3.9,0-5.9,2.5-5.8,7.4c0.1,4.9,2.1,7.2,6,7.2c1.9,0,4.1-0.6,7.6-1.6l0.1,4.7
		C204.8,56.5,202.2,57.2,199.2,57.2z"/>
	<path class="st0" d="M212.8,44.8c0.5-7,4.3-12.1,12.1-11.5c7.8,0.6,10.7,6.2,10.2,13.2s-4.3,12.1-12.1,11.6
		C215.2,57.5,212.3,51.9,212.8,44.8z M228.8,46c0.4-4.8-1.1-7.3-4.4-7.6s-5.1,2.1-5.4,6.9c-0.3,4.5,0.9,7.4,4.4,7.6
		C226.8,53.2,228.5,50.6,228.8,46z"/>
	<path class="st0" d="M242.7,35.2l7.7,1.3l1.7,7.2l1.2,5.8h0.1l2.9-5.1l3.8-6.3l7.9,1.4l-4.1,23.8l-6.2-1.1l2.7-14.9l0,0l-6.7,10.4
		l-4.2-0.7l-2.8-12l0,0l-2.4,14.9l-5.6-1L242.7,35.2z"/>
	<path class="st0" d="M279.5,47.8l-1,3.8l8.8,2.3l-1.3,5l-8.8-2.3l-1.2,4.6l10.6,2.8l-1.3,5l-16.6-4.3l6.1-23.3l16.4,4.3l-1.3,5
		L279.5,47.8z"/>
</g>
</svg>
