<?xml version="1.0" encoding="utf-8"?>
<!-- Generator: Adobe Illustrator 25.4.1, SVG Export Plug-In . SVG Version: 6.00 Build 0)  -->
<svg version="1.1" id="Layer_1" xmlns="http://www.w3.org/2000/svg" xmlns:xlink="http://www.w3.org/1999/xlink" x="0px" y="0px"
	 viewBox="0 0 396 395" style="enable-background:new 0 0 396 395;" xml:space="preserve">
<style type="text/css">
	.st0{fill:#FFFFFF;}
	.st1{fill:#92E3A9;}
	.st2{fill:#D5E1E2;}
	.st3{opacity:0.5;fill:#D5E1E2;enable-background:new    ;}
	.st4{fill:#30B57E;}
	.st5{fill:none;stroke:#FFFFFF;stroke-width:0.3608;stroke-miterlimit:10;}
	.st6{fill:#32E09D;}
	.st7{fill:none;stroke:#FFFFFF;stroke-width:0.5436;stroke-miterlimit:10;}
	.st8{fill:#0F131F;}
	.st9{fill:#5A5D66;}
	.st10{fill:#2D82DF;}
	.st11{fill:none;stroke:#2D52E1;stroke-miterlimit:10;}
	.st12{fill:#2D52E1;stroke:#2D52E1;stroke-miterlimit:10;}
	.st13{fill:#D1D3D4;}
	.st14{fill:#F2AD6D;}
	.st15{fill:#231F20;}
	.st16{fill:#E6E7E8;}
	.st17{fill:#BCBEC0;}
	.st18{fill:#D9804C;}
	.st19{fill:#DE925B;}
	.st20{fill:url(#SVGID_1_);}
	.st21{fill:#F5F5F5;}
</style>
<path class="st0" d="M129.7,324c2.3,0,4.7,0,7.2,0c6.1-0.1,11.7-0.5,16.9-1.1V208.7h-24.1L129.7,324L129.7,324z"/>
<path class="st0" d="M174.3,319c8.3-2.2,16.4-5.4,24.1-9.4v-101h-24.1V319z"/>
<path class="st1" d="M218.8,297.2c8-5.2,15.4-9.7,24.1-11.9v-76.6h-24.1V297.2z"/>
<path class="st0" d="M263.4,284.2c8.6,1,16.5,3.3,24.1,5.8v-81.3h-24.1V284.2z"/>
<path class="st0" d="M15.5,245.1c1.4,3.8,2.9,7.6,4.6,11.2v-47.6H7.3C8.5,221.1,11.3,233.3,15.5,245.1z"/>
<path class="st0" d="M40.5,288.8c6.9,7.8,15.1,14.4,24.1,19.6v-99.7H40.5V288.8z"/>
<path class="st0" d="M85.1,317.4c7.9,2.5,15.9,4.2,24.1,5.2V208.7H85.1V317.4z"/>
<path class="st0" d="M308,296.2c7.9,2,16.1,2.4,24.1,1.2v-88.7H308V296.2z"/>
<path class="st0" d="M366.5,74.6c-6.8-13.6-15.1-26.4-24.9-38.1C300.7-12,218,3.1,186.2,28.2s-33.4,59.9-60.7,69S77,88.9,40.6,110.9
	c-24.6,14.9-35,50.3-34,85.7H390c0.2-2.9,0.4-5.7,0.5-8.5C392.2,148.8,384,109.8,366.5,74.6z M42.6,148.3l-4.6-2.4l-4.6,2.4l0.9-5.1
	l-3.7-3.6l5.1-0.8l2.3-4.6l2.3,4.6l5.1,0.8l-3.7,3.6L42.6,148.3z M147.4,158.4l-6.6,8.6l-2.8-10.5l-10.2-3.6l9.1-5.9l0.3-10.8
	l8.4,6.8l10.4-3l-3.9,10.1l6.1,8.9L147.4,158.4z M198.6,91.7l-0.9,6.2l-4.4-4.5l-6.2,1.1l2.9-5.6l-3-5.6l6.2,1l4.4-4.5l1,6.2
	l5.7,2.8L198.6,91.7z M222,187.9l-5-2.6l-5,2.6l1-5.6l-4.1-4l5.6-0.8l2.5-5.1l2.5,5.1l5.6,0.8l-4.1,4L222,187.9z M291.6,23.6
	l-2.6-1.4l-2.6,1.4l0.5-2.9l-2.1-2.1l2.9-0.4l1.3-2.7l1.3,2.7l2.9,0.4l-2.1,2.1L291.6,23.6z M369.6,162.1l-6.6-3.5l-6.6,3.5l1.3-7.4
	l-5.4-5.2l7.4-1.1l3.3-6.7l3.3,6.7l7.4,1.1l-5.4,5.2L369.6,162.1z"/>
<path class="st0" d="M352.6,290.2c1.1-0.6,2.3-1.2,3.5-1.9c9-5.2,15.6-14.6,20.6-26.1v-53.5h-24.1V290.2z"/>
<g id="freepik--Shadow--inject-15">
	<ellipse class="st2" cx="113.7" cy="342.2" rx="41.3" ry="8.3"/>
	<ellipse class="st3" cx="113.7" cy="342.2" rx="41.3" ry="8.3"/>
</g>
<path class="st4" d="M93.6,320.5l21.1-8.8c-1.5-2.4-2.9-1.3-4.8-5.2c-1-2-0.1-5.2-1.4-7.8c-1-2.1-4.1-3.5-5.3-5.9
	c-1.1-2.2-0.3-5.4-1.5-7.8s-4.2-3.5-5.4-5.8s-0.4-5.5-1.6-7.8s-4.3-3.5-5.5-5.7s-0.6-5.5-1.8-7.7s-4.4-3.4-5.7-5.5
	c-1.4-2.3-0.9-5.6-2.1-7.6c-1.6-2.4-4.8-3.3-6.1-5c-2.5-3.2-3.8-6.7-5-6.5s-0.2,3.8,0.5,8c0.3,2.1-1.2,5-0.5,7.8
	c0.6,2.3,3.3,4.1,4.1,6.7c0.7,2.3-0.7,5.4,0.1,7.9s3.6,4.1,4.4,6.5s-0.5,5.5,0.4,7.9s3.7,4.1,4.5,6.4s-0.3,5.5,0.5,7.8
	s3.8,4.1,4.6,6.4c0.9,2.5-0.2,5.6,0.6,7.8c1,2.7,3.9,4.3,4.7,6.3c1.7,4.4-0.7,4.3,0.7,7.8L93.6,320.5z"/>
<line class="st5" x1="71" y1="240.6" x2="102.3" y2="315.8"/>
<polyline class="st5" points="77.5,247.1 75.3,251.5 71,248.9 "/>
<polyline class="st5" points="83,260.2 80.8,264.6 76.4,262 "/>
<polyline class="st5" points="88.1,272.5 85.9,276.9 81.5,274.3 "/>
<polyline class="st5" points="94.2,287.1 92,291.5 87.6,289 "/>
<polyline class="st5" points="100.4,301.9 98.2,306.3 93.8,303.8 "/>
<path class="st6" d="M91.2,314.7l34.3-1.1c-0.8-4.2-3.5-3.4-4-9.9c-0.3-3.3,2.6-7.4,2.2-11.7c-0.3-3.5-3.9-7.1-4.3-11.1
	c-0.4-3.6,2.5-7.8,2.1-11.8c-0.4-3.7-4.1-7.2-4.5-11s2.4-8,1.9-11.8s-4.2-7.2-4.7-11s2.2-8.1,1.6-11.8c-0.6-3.9-4.4-7.2-5-10.8
	c-0.7-4,1.8-8.4,1.1-11.9c-0.9-4.2-5-7.2-5.9-10.3c-1.7-5.8-1.7-11.5-3.6-11.8s-2.2,5.2-3.5,11.5c-0.6,3.1-4.4,6.4-4.9,10.7
	c-0.4,3.5,2.5,7.6,2.1,11.6c-0.3,3.6-3.8,7.2-4,11.1c-0.2,3.7,2.9,7.7,2.7,11.5s-3.6,7.4-3.7,11.2s3,7.7,2.9,11.5s-3.4,7.6-3.5,11.3
	c-0.1,3.9,3.2,7.8,3.1,11.4c0,4-3.3,7.8-3.3,11.4c0,4.3,3.2,8.1,3.2,11.4c0,7.1-3.3,5.7-3.2,11.4L91.2,314.7z"/>
<line class="st7" x1="102" y1="190" x2="105.9" y2="312.6"/>
<polyline class="st7" points="107.8,202.7 102.4,207.7 97.6,201.8 "/>
<polyline class="st7" points="108.5,224 103.1,229 98.3,223.1 "/>
<polyline class="st7" points="109.1,244.1 103.7,249.1 98.9,243.2 "/>
<polyline class="st7" points="109.9,268 104.4,273 99.7,267.1 "/>
<polyline class="st7" points="110.7,292.1 105.2,297.1 100.4,291.2 "/>
<path class="st6" d="M111.9,237.6c1.8,1.2,6.5,2,6.5,2s-0.4-3.3-0.5-3.5c-0.6-2.4-3.2-6.6-5.9-6.7c-1.8-0.1-3.3,1.4-3.3,3.1
	c0,0.1,0,0.2,0,0.4C108.8,234.8,110.4,236.5,111.9,237.6z"/>
<path class="st6" d="M159.5,247.9c0,0,1.5-3,1.5-3.2c0.8-2.3,1-7.2-1.2-8.9c-1.5-1-3.5-0.7-4.5,0.8c-0.1,0.1-0.1,0.2-0.2,0.3
	c-1,1.7-0.6,4,0.1,5.7C156,244.6,159.5,247.9,159.5,247.9z"/>
<path class="st4" d="M176.9,233.5c-2.6-0.8-6.5,2.2-7.9,4.2c-0.1,0.2-1.7,3.1-1.7,3.1h0.1c-0.6,0.5-1.3,1-2,1.6
	c-1.3,1.1-2.8,2.3-4.2,3.8c-1.6,1.5-3.2,3.2-4.6,4.9c-1.6,1.9-3.1,4-4.3,6.2v0.1c0.2-0.8,0.6-3,0.6-3.2c0.1-2.4-1-7.2-3.5-8.2
	c-1.7-0.6-3.5,0.3-4.2,1.9c0,0.1-0.1,0.2-0.1,0.4c-0.5,1.9,0.5,4,1.6,5.5c1.2,1.6,5.2,3.8,5.5,3.9c-1.2,2.3-2.3,4.6-3.2,7
	c-0.5,1.4-1,2.8-1.5,4.2c0.1-0.7,0.2-1.3,0.2-1.4c0.1-2.4-1-7.2-3.5-8.2c-1.7-0.6-3.5,0.3-4.1,1.9c0,0.1-0.1,0.2-0.1,0.3
	c-0.5,1.9,0.5,4,1.6,5.5s4.4,3.4,5.3,3.8l-0.5,1.6c-0.9,2.6-1.7,5.3-2.6,7.8c-0.3,0.9-0.7,1.8-1,2.6c0.1-0.6,0.2-1.1,0.2-1.2
	c0.1-2.5-1-7.2-3.5-8.2c-1.7-0.6-3.5,0.2-4.1,1.9c0,0.1-0.1,0.2-0.1,0.4c-0.5,1.9,0.5,4,1.6,5.5s4.1,3.2,5.2,3.8
	c-0.4,0.9-0.8,1.8-1.1,2.6c-0.3,0.6-0.5,1.1-0.9,1.7s-0.6,1.1-0.9,1.6c-0.6,1-1.3,2.1-1.9,3.1c-0.4,0.7-0.9,1.3-1.3,2
	c0.3-0.9,0.9-2.7,1-2.8c0.4-2.1,0.2-4.3-0.5-6.3c0.1-0.2,0.1-0.5,0.1-0.7c0.1-1.8-1.2-3.3-3-3.4c-0.1,0-0.2,0-0.3,0
	c-2.7,0.2-5.3,4.4-5.9,6.8c0,0.1-0.2,1.7-0.4,2.7c0-0.6,0-1.2-0.1-1.8c0-1.2-0.1-2.4-0.2-3.7c-0.1-0.6-0.1-1.2-0.2-1.9
	s-0.2-1.3-0.3-1.9c-0.2-1.5-0.6-3-0.9-4.5c1.1,0,4.8-0.3,6.4-1.1s3.5-2.3,3.9-4.2c0.4-1.7-0.7-3.5-2.5-3.9c-0.1,0-0.2,0-0.3-0.1
	c-2.7-0.2-5.9,3.6-6.8,5.8c-0.1,0.1-0.6,1.8-0.8,2.8c-0.2-0.9-0.4-1.8-0.7-2.7c-0.7-2.6-1.6-5.3-2.4-7.9l-0.7-2.4
	c0.4,0,4.8-0.2,6.7-1.1c1.6-0.8,3.5-2.3,3.8-4.2c0.4-1.7-0.7-3.5-2.4-3.9c-0.1,0-0.2,0-0.4-0.1c-2.7-0.2-5.9,3.6-6.8,5.8
	c-0.1,0.2-0.8,2.6-0.9,3.2c-0.5-1.8-1-3.6-1.5-5.4c-0.6-2.4-1-4.8-1.3-7.3c0.2,0,4.8-0.1,6.7-1.1c1.6-0.8,3.5-2.3,3.8-4.2
	c0.4-1.7-0.7-3.5-2.4-3.9c-0.1,0-0.2,0-0.4-0.1c-2.7-0.2-5.9,3.6-6.8,5.8c-0.1,0.1-0.6,2-0.8,2.9h-0.1c-0.2-2.5-0.2-5,0-7.5
	c0.1-1.4,0.3-2.7,0.5-3.9c0.9,0.1,4.8,0.3,6.6-0.4s3.7-1.9,4.3-3.8c0.6-1.7-0.3-3.5-2-4.1c-0.1,0-0.2-0.1-0.3-0.1
	c-2.7-0.5-6.2,2.9-7.4,5c-0.1,0.1-0.6,1.4-1,2.3c0.1-0.6,0.2-1.1,0.3-1.7c0.4-2,0.9-3.9,1.3-5.5c0.3-0.9,0.5-1.8,0.8-2.5
	c0.9-0.4,4.4-2,5.7-3.4s2.4-3.4,2.1-5.3c-0.3-1.8-1.9-3-3.7-2.7c-0.1,0-0.2,0-0.3,0.1c-2.6,0.8-4.2,5.5-4.2,7.9
	c0,0.2,0.3,3.5,0.3,3.5l0,0c-0.2,0.7-0.5,1.5-0.8,2.4c-0.5,1.6-1,3.4-1.5,5.5c-0.5,2.2-0.9,4.4-1.1,6.6c-0.3,2.5-0.4,5-0.2,7.5v0.1
	c-0.3-0.7-1.2-2.8-1.3-3c-1.2-2.1-4.8-5.5-7.5-4.9c-1.7,0.4-2.8,2.2-2.4,3.9c0,0.1,0.1,0.2,0.1,0.3c0.6,1.8,2.6,3.1,4.3,3.7
	c1.9,0.7,6.4,0.3,6.8,0.2c0.2,2.5,0.6,5.1,1.2,7.6c0.3,1.5,0.7,2.9,1.1,4.4c-0.3-0.6-0.5-1.2-0.6-1.3c-1.2-2.1-4.8-5.5-7.5-4.9
	c-1.7,0.4-2.8,2.2-2.4,3.9c0,0.1,0.1,0.2,0.1,0.3c0.6,1.8,2.6,3.1,4.4,3.7s5.6,0.3,6.6,0.3c0.2,0.5,0.3,1.1,0.5,1.7
	c0.8,2.7,1.5,5.3,2.2,8c0.2,0.9,0.4,1.9,0.6,2.8c-0.2-0.6-0.4-1-0.5-1.1c-1.2-2.1-4.8-5.5-7.5-4.9c-1.7,0.4-2.8,2.2-2.4,3.9
	c0,0.1,0.1,0.2,0.1,0.3c0.6,1.8,2.6,3.1,4.4,3.7s5.2,0.4,6.4,0.3c0.2,1,0.4,1.9,0.5,2.8c0.1,0.6,0.2,1.2,0.2,1.9s0.1,1.3,0.1,1.9
	c0.1,1.2,0.1,2.4,0.1,3.6c0,0.8,0,1.6,0,2.4c-0.2-0.9-0.7-2.7-0.8-2.9c-0.9-2.3-3.9-6.2-6.7-6c-1.8,0.2-3.1,1.7-3,3.5
	c0,0.1,0,0.2,0,0.3c0.3,1.9,2.1,3.5,3.7,4.3c1.8,0.9,6.1,1.2,6.6,1.3c0,1.3,0,2.6,0,3.8c-0.1,3.7-0.2,6.9-0.4,9.2l1.8,0.4
	c0.1-2.4,0.2-5.7,0.2-9.6c0-1.3,0-2.7-0.1-4.2c1.4-0.3,2.7-0.6,4-1c1.1,1.8,4.3,4.2,4.7,4.5c-0.7,1.1-1.4,2.1-2.1,3.1
	c-2.1,3-4,5.6-5.4,7.4l2,0.4c1.3-1.8,3-4.1,4.8-6.9c0.7-1.1,1.5-2.3,2.2-3.5c0.5,0.2,4.5,1.9,6.5,1.8c1.8-0.1,4.1-0.6,5.3-2.2
	c1.1-1.4,0.8-3.5-0.6-4.5c-0.1-0.1-0.2-0.1-0.3-0.2c-2.4-1.4-6.8,0.8-8.6,2.4c-0.1,0.1-1.1,1.3-1.8,2c0.3-0.5,0.6-1,0.9-1.5
	c0.6-1,1.2-2.1,1.9-3.2l0.9-1.7c0.3-0.5,0.6-1.2,0.8-1.8c0.6-1.4,1.2-2.8,1.7-4.3c0.9,0.5,4.1,2.4,6,2.6s4.2,0,5.5-1.4
	c1.3-1.2,1.3-3.3,0.1-4.6c-0.1-0.1-0.2-0.2-0.3-0.2c-2.1-1.7-6.9-0.3-8.9,1.1c-0.1,0.1-1.5,1.2-2.2,1.9c0.3-0.9,0.6-1.8,0.9-2.7
	c0.8-2.6,1.6-5.3,2.4-7.9c0.2-0.8,0.5-1.6,0.7-2.4c0.3,0.2,4.1,2.5,6.1,2.8c1.8,0.2,4.2,0,5.5-1.4c1.3-1.2,1.3-3.3,0.1-4.6
	c-0.1-0.1-0.2-0.2-0.3-0.2c-2.1-1.7-6.9-0.3-8.9,1.1c-0.1,0.1-2.1,1.8-2.6,2.2c0.5-1.8,1.1-3.5,1.7-5.3c0.8-2.3,1.8-4.6,2.9-6.8
	c0.1,0.1,4.1,2.5,6.2,2.8c1.8,0.2,4.2,0,5.5-1.4c1.3-1.2,1.3-3.3,0.1-4.6c-0.1-0.1-0.2-0.2-0.3-0.2c-2.1-1.7-6.9-0.2-8.9,1.1
	c-0.1,0.1-1.6,1.3-2.3,2l-0.1-0.1c1.2-2.2,2.6-4.3,4.1-6.2c0.8-1.1,1.7-2.1,2.6-3c0.7,0.5,3.9,2.9,5.7,3.4s4.2,0.5,5.6-0.8
	c1.4-1.1,1.7-3.1,0.6-4.5c-0.1-0.1-0.1-0.2-0.2-0.3c-1.9-1.9-6.8-1-9,0.1c-0.1,0.1-1.2,0.8-2.1,1.4c0.4-0.4,0.8-0.9,1.2-1.2
	c1.5-1.5,2.9-2.7,4.1-3.8c0.7-0.6,1.4-1.2,2-1.7c0.9,0.2,4.8,0.8,6.6,0.3s3.9-1.5,4.7-3.3c0.8-1.6,0.1-3.6-1.5-4.4
	C177.1,233.6,177,233.5,176.9,233.5z"/>
<rect x="77.7" y="306" class="st8" width="74.4" height="9.9"/>
<polygon class="st9" points="140.4,344.2 89.4,344.2 83,314.8 146.8,314.8 "/>
<path class="st10" d="M78.3,157l-0.8,70.9c0,0-3,1.5-11.3,1.5s-11.3-1.5-11.3-1.5l3-28.7c0,0-10.6-2.3-10.6-5.3s23.4-86,23.4-86
	S82.9,129.1,78.3,157z"/>
<line class="st11" x1="57.9" y1="199.2" x2="67.7" y2="154.1"/>
<path class="st12" d="M61.7,107.9c0,0,13.6,18.1,15.1,25.7s1.5,23.4,1.5,23.4c4.4-11.1,7.2-22.8,8.3-34.7
	C88.1,103.4,73,93.6,73,93.6L61.7,107.9z"/>
<path class="st10" d="M316.9,157l0.8,70.9c0,0,3,1.5,11.3,1.5s11.3-1.5,11.3-1.5l-3-28.7c0,0,10.5-2.3,10.5-5.3s-23.4-86-23.4-86
	S312.4,129.1,316.9,157z"/>
<line class="st11" x1="337.3" y1="199.2" x2="328.2" y2="146.7"/>
<path class="st12" d="M333.5,107.9c0,0-13.6,18.1-15.1,25.7s-1.5,23.4-1.5,23.4c-4.4-11.1-7.2-22.8-8.3-34.7
	c-1.5-18.9,13.6-28.7,13.6-28.7L333.5,107.9z"/>
<path class="st10" d="M333.4,107.9c-83.8-49.5-187.9-49.5-271.7,0L37.9,67.6c-1.7-2.9-0.1-7,3.7-9.1c96.9-54.2,215.1-54.2,312,0
	c3.7,2.1,5.4,6.2,3.6,9.1L333.4,107.9z"/>
<path class="st11" d="M333.4,107.9c-83.8-49.5-187.9-49.5-271.7,0L37.9,67.6c-1.7-2.9-0.1-7,3.7-9.1c96.9-54.2,215.1-54.2,312,0
	c3.7,2.1,5.4,6.2,3.6,9.1L333.4,107.9z"/>
<g>
	<ellipse class="st13" cx="234.6" cy="383" rx="49.9" ry="3.8"/>
	<g>
		<polygon class="st14" points="218.4,372.8 196,381.4 196,383.1 230.4,383 230.4,359.2 218.5,359.3 		"/>
		<polygon class="st15" points="196,381.4 196,383.1 230.4,383 230.4,381.3 230.3,372.8 230.3,372.1 225.3,381.2 217.5,381.2 
			213.4,374.3 207.8,376.7 209.7,380.8 		"/>
	</g>
	<g>
		<polygon class="st14" points="264.5,362.2 266.6,383 243.3,383 243.3,380.5 252.8,371.5 252.8,362 		"/>
		<path class="st15" d="M243.3,383v-2.6h17.4c0,0-0.6-2.3-4.7-3c-2.6-0.4-8.4-0.9-12,2.2l4.4-3.9c2.5-2.7,12.6-3.7,16.1,4.5l1-8.2
			l1.1,10.9h-23.3V383z"/>
	</g>
	<path class="st16" d="M262.4,243l0.6-68.1l4.9-10.6c0-4.6-3.3-8.6-7.9-9.4l-39.4-0.9c-5,0.6-8.8,4.8-8.8,9.8l-0.7,78.6l-1.7,126
		H269L262.4,243z"/>
	<path class="st17" d="M257.4,128.5c13,29.7,11.8,52.1,7.1,55.9c-7.2,8.5-48.3,9.8-56.5,3.8c-3.1-2.2-3.3-25.9,5.8-57.1
		C219.9,110.2,248.9,112.5,257.4,128.5z"/>
	<path class="st16" d="M261,176.1l-7.8-0.9c-2.3-0.3-4.7-0.4-7-0.5l-13.7-0.2c-3.6-0.1-7.3,0.2-10.9,0.7l0,0c-5,0.6-8.8,4.8-8.8,9.8
		l-0.7,78.6l51.3,0.5L264,196C264,196.1,265.6,176.9,261,176.1z"/>
	<polygon class="st16" points="254,175.4 287.8,167.3 318.9,146.3 321.9,154.6 294,183.9 259.9,185.3 	"/>
	<polygon class="st16" points="221.9,175.4 188.1,167.3 156.9,146.3 154,153.9 181.9,183.9 216,185.3 	"/>
	<polygon class="st14" points="156.8,147 152.5,144.6 148.4,137 140.9,134.1 138,130.8 136.6,132.3 137,136 141.5,139.8 119,139.6 
		119,142 129.4,143.4 119.8,144.9 124.9,148.5 137,150.8 147.9,150.8 154.6,152.9 	"/>
	<polygon class="st18" points="122.8,147.1 128.2,146.9 131.8,146.8 137.7,149.4 148.3,150.9 137,150.8 124.9,148.5 	"/>
	<polygon class="st18" points="134.6,145.3 139.8,146.7 144.3,145.6 	"/>
	<polygon class="st14" points="319.1,147 323.4,144.6 327.5,137 334.9,134.1 337.9,130.8 339.3,132.3 339.2,136 334.3,139.8 
		356.9,139.6 356.8,142 346.5,143.4 356.1,144.9 351,148.5 338.9,150.8 328,150.8 321.3,152.9 	"/>
	<polygon class="st18" points="353.1,147.1 347.7,146.9 344.1,146.8 338.2,149.4 327.6,150.9 338.9,150.8 351,148.5 	"/>
	<polygon class="st18" points="341.2,145.3 336.1,146.7 331.6,145.6 	"/>
	
		<rect x="229.1" y="155.6" transform="matrix(0.9981 -6.180587e-02 6.180587e-02 0.9981 -9.762 15.0168)" class="st19" width="17.5" height="19.4"/>
	<path class="st14" d="M238.6,167.3l-1.4,0.1c-1.9,0.1-3.8-0.5-5.3-1.6l-3.6-2.7c-4.6-3.5-7.6-8.6-8.4-14.3l-4-27.2l17.5-13.1
		c0,0,20.8,10.3,20.8,11.1c0,0.5,0.2,15.4,0.3,26c0.1,6.7-2.9,13.1-8.1,17.3l-3.2,2.7C241.8,166.6,240.2,167.2,238.6,167.3z"/>
	<path class="st15" d="M246.2,140.5L246.2,140.5c0.8,0,1.4-0.7,1.4-1.5l-0.1-2.3c0-0.8-0.7-1.4-1.5-1.4l0,0c-0.8,0-1.4,0.7-1.4,1.5
		l0.1,2.3C244.7,140,245.4,140.6,246.2,140.5z"/>
	<path class="st15" d="M228.3,141.6L228.3,141.6c0.8,0,1.4-0.7,1.4-1.5l-0.1-2.3c0-0.8-0.7-1.4-1.5-1.4l0,0c-0.8,0-1.4,0.7-1.4,1.5
		l0.1,2.3C226.8,141.1,227.5,141.7,228.3,141.6z"/>
	<path class="st0" d="M244.3,150.6l-14.9-0.2l2.6,2.9c1.1,1.2,2.6,1.9,4.3,2h1.2c1.9,0.1,3.7-0.8,4.9-2.3L244.3,150.6z"/>
	
		<linearGradient id="SVGID_1_" gradientUnits="userSpaceOnUse" x1="-1518.2612" y1="1973.6752" x2="-1518.2612" y2="1997.0579" gradientTransform="matrix(-0.9981 6.180000e-02 6.180000e-02 0.9981 -1402.3065 -1754.0436)">
		<stop  offset="0" style="stop-color:#D9804C"/>
		<stop  offset="0.5686" style="stop-color:#E99C61"/>
		<stop  offset="1" style="stop-color:#F2AD6D"/>
	</linearGradient>
	<path class="st20" d="M245.5,114.7c4.5,2.3,8.6,4.5,8.6,4.9s0.1,8,0.2,16.1c-0.2,0-0.3,0-0.5,0c-5.5-2.7-25.3-4.4-34.7,2.6
		c-0.2,0.2-0.5,0.3-0.7,0.5l-2.6-17.3l3.7-2.8C227.5,116,237.4,113.9,245.5,114.7z"/>
	<path class="st15" d="M215.8,121.5l4,27.2c0.8,5.7,3.9,10.8,8.4,14.3l3.6,2.7c1.5,1.2,3.4,1.8,5.3,1.6l1.4-0.1
		c1.7-0.1,3.3-0.7,4.6-1.8l3.2-2.7c5.2-4.3,8.1-10.6,8.1-17.3c-0.1-10.6-0.3-25.4-0.3-26c0-0.1-0.7-0.6-1.7-1.2
		c0.2,4.3,0.8,20.8,1,24.8c0.2,3.2-0.6,10.2-5.7,14.5c0.4-3.9,0.4-9.4-0.2-9.8c-0.7-0.5-20.7-0.5-21.2,0.3c-0.4,0.7-0.1,5.6,0.4,10
		c-3.7-3.2-5.1-8-5.7-11.3c-0.9-4.5-3-21.5-3.6-26.6L215.8,121.5z M232.6,161c-2.2-0.5-3.8-2.3-4.1-4.6c-0.4-3.4-0.6-6.3-0.5-7
		c0.1-1.1,16.8-1,18-0.3c0.7,0.4,0.6,3.7-0.1,7.4c-0.4,2-1.8,3.6-3.8,4.1c-1.3,0.4-2.8,0.6-4.5,0.7C235.7,161.4,234,161.3,232.6,161
		z"/>
	<polygon class="st15" points="238.4,162.8 238.5,158 235.1,157.8 235,163 	"/>
	<path class="st15" d="M250.7,133.4c-1.5-1.2-5.7-2.5-10-2.3c-0.1-0.5-0.1-1.9-0.1-1.9c2.2-0.5,7.5-1.2,10.6,2.5
		C251.1,132.4,250.7,133.4,250.7,133.4z"/>
	<path class="st15" d="M221.6,134.9c1.4-1.4,5.4-3.2,9.6-3.5c0-0.5-0.1-1.9-0.1-1.9c-2.3-0.3-7.6-0.2-10.2,3.8
		C221.1,134,221.6,134.9,221.6,134.9z"/>
	<path class="st16" d="M215.6,122.9l38.9-2.4c-0.5-8.8-6.9-16-20.4-15.1C221.5,106.2,215.1,114.1,215.6,122.9z"/>
	<path class="st15" d="M215.1,122.1c-1.2,0-2.1-0.9-2.2-2.1c-0.1-1.2,0.9-2.3,2.1-2.3l39.5-2.4c1.2-0.1,2.3,0.9,2.3,2.1
		c0.1,1.2-0.9,2.3-2.1,2.3L215.1,122.1C215.2,122.1,215.1,122.1,215.1,122.1z"/>
	<path class="st15" d="M215.8,118.7c-1.2,0-2.1-0.9-2.2-2.1c-0.1-1.2,0.9-2.3,2.1-2.3l37.7-2.3c1.2-0.1,2.3,0.9,2.3,2.1
		c0.1,1.2-0.9,2.3-2.1,2.3L215.8,118.7C215.9,118.7,215.9,118.7,215.8,118.7z"/>
	<path class="st16" d="M215.7,122.9l19.3-1.7l19.5-0.7c0,0,1.9,4.7,2.9,8c-7.6-6.8-12.6-2.7-22.1-2.1c-9.5,0.6-14.3-3-21.5,4.8
		C214.4,127.8,215.7,122.9,215.7,122.9z"/>
	<path class="st21" d="M231.3,176.4l14.4-0.9c1-0.1,1.7-0.9,1.6-1.8l-0.3-5.6l-10.3,1.9l-7.5-0.8l0.3,5.6
		C229.5,175.7,230.3,176.4,231.3,176.4z"/>
	<path class="st16" d="M254.2,126.1c2.5,1.8,3.2,4.8,2.4,11.1c-0.8,6.4-1.6,11.6,3.2,16c4.7,4.4,7.9,10.6,7.8,21.1
		c2.3-17.3-8.8-43.6-13.1-53.9C252.9,122.5,254.2,126.1,254.2,126.1z"/>
	<path class="st16" d="M217.8,127.7c-2.6,2.2-4.5,7.5-3.4,13.8c1,6.3,3.5,11.8,0,16.1c-3.6,4.4-6.8,7.6-8.4,19.3
		c0.4-15.4,2.8-33.6,9.6-54.1C216.7,121.1,217.8,127.7,217.8,127.7z"/>
	<path class="st21" d="M237.9,176c-2.8,4-5.9,16.1-5.6,26.3c-1,0.1-5.5,0.3-5.5,0.3c-0.2-7.6,1.5-20.8,4.7-26.3
		C233.4,173.1,237.9,176,237.9,176z"/>
	<g>
		<path class="st13" d="M232.5,178.2c0-0.4,0.4-0.7,0.8-0.7s0.7,0.4,0.7,0.8c0,0.4-0.4,0.7-0.8,0.7
			C232.8,179,232.5,178.6,232.5,178.2z"/>
		<path class="st13" d="M234.2,172.2c0-0.4,0.4-0.7,0.8-0.7s0.7,0.4,0.7,0.8c0,0.4-0.4,0.7-0.8,0.7
			C234.4,173,234.1,172.6,234.2,172.2z"/>
		<path class="st13" d="M230.7,184.2c0-0.4,0.4-0.7,0.8-0.7s0.7,0.4,0.7,0.8s-0.4,0.7-0.8,0.7C231,184.9,230.7,184.6,230.7,184.2z"
			/>
		<path class="st13" d="M229.4,191.2c0-0.4,0.4-0.7,0.8-0.7s0.7,0.4,0.7,0.8s-0.4,0.7-0.8,0.7S229.4,191.6,229.4,191.2z"/>
		<path class="st13" d="M228.7,198.1c0-0.4,0.4-0.7,0.8-0.7s0.7,0.4,0.7,0.8s-0.4,0.7-0.8,0.7C229,198.9,228.7,198.5,228.7,198.1z"
			/>
	</g>
</g>
<path class="st0" d="M94.7,48.2l-0.5-1.4l6.6-3.3l0.5,1.4L94.7,48.2z M95.6,50.7l-0.5-1.4l6.6-3.3l0.5,1.4L95.6,50.7z"/>
<path class="st0" d="M164.8,53.5c0-0.1,0-0.1-0.1-0.2c0-0.1-0.1-0.1-0.3-0.1c-0.9,0.1-1.6,0.1-2.2-0.1c-0.6-0.2-1.1-0.5-1.5-1.1
	c0.2-1.2,0.2-2.5,0-3.6c-0.3-2-1-3.7-2.2-5.2s-2.8-2.6-4.8-3.3c-2-0.7-4.3-0.9-6.8-0.5l-4,0.5l2.2,3.6l2.2-0.3
	c1.7-0.2,3.2-0.1,4.5,0.4s2.3,1.2,3.1,2.2s1.2,2.2,1.4,3.5c0.1,1.1,0,2.1-0.3,2.9s-0.8,1.4-1.4,1.8c-0.6,0.4-1.2,0.7-1.8,0.8
	l-0.7,0.1c0.9-1.1,1.3-2.4,1.1-3.9c-0.1-1-0.5-2-1.2-3c-0.7-0.9-1.6-1.6-2.7-2.2c-1.1-0.5-2.5-0.7-4-0.4c-1.4,0.2-2.5,0.6-3.5,1.4
	c-1,0.7-1.7,1.6-2.2,2.7s-0.6,2.1-0.5,3.2c0.2,1.6,0.9,2.8,2.1,3.6c0,0-4.2,0.8-4.2,0.9l-3.7,0.7l-4.1,0.8h-0.1l-4,0.9H125l-4.7,0.9
	c-0.8,0.2-1.4,0.2-2-0.1c-0.5-0.3-1-1-1.3-2.1l-5.2-17.8l-4.4,1.3l5.4,18.5c0.1,0.3,0.2,0.6,0.4,1.1c-0.8,0.9-2,1.6-3.5,2.2
	L102.8,51l-4.5,1.3l7,12.6L98,67l2.8,3.2l9.2-2.7c2.1-0.6,3.8-1.8,5.2-3.6c1.3,1,3,1.2,4.8,0.6l1.4-0.3c0.1,0.1,4.3-0.9,4.3-0.9h0.1
	l3.9-0.9l4-0.8l20.8-3.3c2.1-0.3,3.7-1.4,4.8-3.2c0.8,0.7,1.6,1.2,2.6,1.5s1.9,0.4,2.7,0.3c0.1,0,0.2-0.1,0.2-0.1c0-0.1,0-0.2,0-0.2
	V53.5z M149.1,54.3c-0.4,0.7-1.1,1.1-1.9,1.2h-0.1c-1.9-0.3-3-1.4-3.3-3.2c-0.1-1,0-1.7,0.4-2.2s1-0.9,1.8-1c0.6-0.1,1.2,0,1.7,0.2
	s0.9,0.6,1.2,1s0.5,0.9,0.6,1.3C149.6,52.8,149.5,53.6,149.1,54.3z"/>
<path class="st0" d="M185.6,56.2c-2.3,0.1-4.1-0.5-5.4-1.9c-1.1,1.5-2.7,2.2-4.6,2.3L164.5,57c-0.1,0-0.2,0-0.3-0.1
	c0-0.1-0.1-0.1-0.1-0.2l-0.1-3.2c0-0.1,0-0.1,0.1-0.2c0-0.1,0.1-0.1,0.3-0.1l3.2-0.1l-0.5-12.2l4.5-0.2l0.5,12.2l2-0.1
	c0.9,0,1.6-0.4,2.2-1.1c0.6-0.7,0.9-1.6,0.8-2.7l-0.3-8.5l4.5-0.2l0.4,9.4c0.1,0.9,0.6,1.6,1.5,2s1.9,0.6,3,0.6l2-0.1l-0.5-13.5
	l4.5-0.2l0.7,17.4L185.6,56.2z"/>
<path class="st0" d="M211.7,40.8l-0.4,14.5c-0.1,2-0.5,3.6-1.2,4.8c-0.7,1.2-1.7,2.1-2.9,2.6c-1.2,0.6-2.7,1-4.5,1.2l-1.7-4.1
	c1.3-0.1,2.4-0.3,3.2-0.6c0.8-0.3,1.4-0.7,1.8-1.3c0.4-0.6,0.7-1.4,0.7-2.5l0.3-11.2c-0.8-0.2-1.4-0.3-2.1-0.3
	c-2.6-0.1-4,1.4-4.1,4.3c0,1.3,0.3,2.3,0.9,3.1c0.7,0.8,1.6,1.2,2.9,1.2h1.4l-1.9,3.8h-0.5c-1.5,0-2.8-0.4-4-1.1s-2.1-1.7-2.7-2.9
	c-0.6-1.3-0.9-2.7-0.9-4.3c0-1.6,0.5-3,1.2-4.2c0.8-1.2,1.8-2.2,3.2-2.9c1.3-0.7,2.9-1,4.7-0.9C206.7,40,208.9,40.3,211.7,40.8z"/>
<path class="st0" d="M224.1,36.8l0.1-1.5l7.3-0.5l-0.1,1.5L224.1,36.8z M224.3,34.2l0.1-1.5l7.3-0.5l-0.1,1.5L224.3,34.2z"/>
<path class="st0" d="M283.7,50.5c-1.6-2.5-4.4-4.2-8.3-5.2l-3.9-0.9l0.8,4.2l2.1,0.5c2.6,0.6,4.4,1.8,5.4,3.5s1.1,3.9,0.4,6.8
	l-0.8,3.5l-3.2-0.8l0.8-3.3c0.2-1,0.2-2.1,0-3.3c-0.3-1.1-0.8-2.2-1.7-3.1c-0.9-0.9-2-1.6-3.5-1.9c-1.3-0.3-2.6-0.3-3.8,0
	c-1.2,0.3-2.2,0.9-3,1.7c-0.8,0.8-1.4,1.8-1.7,3c-0.4,1.6-0.1,3,0.8,4.1l-7.7-1.4h-0.1l-4-0.7l0,0l-4.1-0.7l0,0c0,0-3.8-0.6-3.8-0.7
	s-0.9-0.2-0.9-0.2c-0.8-0.1-1.4-0.4-1.8-0.9s-0.5-1.3-0.4-2.4l2-18.4l-4.5-0.5l-2,19.1c0,0.3,0,0.7-0.1,1.2
	c-1.1,0.5-2.4,0.7-4.1,0.7l-1.5-14.3l-4.6-0.5l1.7,14.3l-7.6-0.8l1.3,4.1l9.5,1c2.2,0.2,4.2-0.2,6.1-1.3c0.9,1.4,2.3,2.2,4.2,2.4
	l1.5,0.2l4.3,0.9h0.1l4,0.7h0.1l3.9,0.7c0,0,4.5,0.7,4.5,0.6l22.8,5.5l1.8-7.6C285.7,56.3,285.3,53.1,283.7,50.5z M273.2,58.2
	l-0.7,3l-1.7-0.4c-1.3-0.3-2.2-0.9-2.7-1.7c-0.5-0.8-0.6-1.7-0.4-2.6s0.6-1.6,1.2-2s1.2-0.5,2-0.3c1,0.2,1.7,0.7,2,1.5
	C273.3,56.4,273.4,57.2,273.2,58.2z"/>
<path class="st0" d="M287,69.1l7.2-23.8l4.3,1.3l-7.2,23.8L287,69.1z"/>
</svg>
