<svg width="24" height="24" viewBox="0 0 24 24" fill="none" xmlns="http://www.w3.org/2000/svg">
<rect width="24" height="24" rx="4" fill="#5A5C66"/>
<path d="M19.6765 8.21949C19.4952 7.54625 18.9644 7.01543 18.2912 6.83418C17.0612 6.49756 12.1414 6.49756 12.1414 6.49756C12.1414 6.49756 7.22164 6.49756 5.9917 6.82123C5.33141 7.00248 4.78764 7.54625 4.60639 8.21949C4.28271 9.44944 4.28271 12 4.28271 12C4.28271 12 4.28271 14.5634 4.60639 15.7804C4.78764 16.4537 5.31846 16.9845 5.9917 17.1657C7.23459 17.5024 12.1414 17.5024 12.1414 17.5024C12.1414 17.5024 17.0612 17.5024 18.2912 17.1787C18.9644 16.9974 19.4952 16.4666 19.6765 15.7934C20.0002 14.5634 20.0002 12.0129 20.0002 12.0129C20.0002 12.0129 20.0131 9.44944 19.6765 8.21949Z" fill="white"/>
<path d="M10.5747 14.3564L14.6659 12.0001L10.5747 9.6438V14.3564Z" fill="#5A5C66"/>
</svg>
